<svg id="logo" xmlns="http://www.w3.org/2000/svg" width="102.906" height="24.18" viewBox="0 0 102.906 24.18">
  <metadata><?xpacket begin="﻿" id="W5M0MpCehiHzreSzNTczkc9d"?>
<x:xmpmeta xmlns:x="adobe:ns:meta/" x:xmptk="Adobe XMP Core 5.6-c138 79.159824, 2016/09/14-01:09:01        ">
   <rdf:RDF xmlns:rdf="http://www.w3.org/1999/02/22-rdf-syntax-ns#">
      <rdf:Description rdf:about=""/>
   </rdf:RDF>
</x:xmpmeta>
                                                                                                    
                                                                                                    
                                                                                                    
                                                                                                    
                                                                                                    
                                                                                                    
                                                                                                    
                                                                                                    
                                                                                                    
                                                                                                    
                                                                                                    
                                                                                                    
                                                                                                    
                                                                                                    
                                                                                                    
                                                                                                    
                                                                                                    
                                                                                                    
                                                                                                    
                                                                                                    
                           
<?xpacket end="w"?></metadata>
<defs>
    <style>
      .cls-1 {
        fill: #222328;
      }

      .cls-1, .cls-2 {
        fill-rule: evenodd;
      }

      .cls-2 {
        fill: #3e51b5;
      }
    </style>
  </defs>
  <path id="easy" class="cls-1" d="M411.039,5097.97H398.2v-7.32h11.1a1.485,1.485,0,0,0,1.5-1.5,1.5,1.5,0,0,0-1.5-1.5H398.2v-7.23h12.539a1.5,1.5,0,0,0,0-3H396.7a1.5,1.5,0,0,0-1.5,1.5v20.55a1.5,1.5,0,0,0,1.5,1.5h14.339A1.5,1.5,0,0,0,411.039,5097.97Zm5.251,3.03a1.5,1.5,0,0,1-1.35-2.16l9.989-20.58a1.536,1.536,0,0,1,1.35-.84,1.5,1.5,0,0,1,1.35.84l10.05,20.55a1.5,1.5,0,0,1-2.7,1.32l-2.34-4.83a10.657,10.657,0,0,0-4.98-.18,17.948,17.948,0,0,0-5.13,1.83,26.76,26.76,0,0,0-5.22,3.63A1.481,1.481,0,0,1,416.29,5101Zm9.989-18.66-6.03,12.45c0.27-.15.54-0.3,0.84-0.45a20.726,20.726,0,0,1,6-2.16,14.4,14.4,0,0,1,3.9-.21Zm29.4,11.16a5.836,5.836,0,0,0-1.23-2.52,6.558,6.558,0,0,0-1.95-1.65l-0.15-.09c-0.18-.09-0.39-0.18-0.6-0.3a30.438,30.438,0,0,0-3.06-.99c-3.12-.87-5.04-1.56-5.52-3.66a3.075,3.075,0,0,1,1.02-3.03,5.535,5.535,0,0,1,4.11-1.08,7.123,7.123,0,0,1,4.68,2.52,1.488,1.488,0,0,0,2.1.27,1.517,1.517,0,0,0,.24-2.1,10.089,10.089,0,0,0-3-2.49,10.207,10.207,0,0,0-3.69-1.17,8.426,8.426,0,0,0-6.3,1.74,5.85,5.85,0,0,0-1.89,2.73,5.648,5.648,0,0,0-.18,3.3,5.95,5.95,0,0,0,1.23,2.55,7.253,7.253,0,0,0,1.98,1.65c0.03,0.03.09,0.03,0.12,0.06a6,6,0,0,0,.63.3,19.891,19.891,0,0,0,3.03.99c3.12,0.87,5.04,1.56,5.55,3.66a3.134,3.134,0,0,1-1.05,3.03,5.608,5.608,0,0,1-4.08,1.11,7.089,7.089,0,0,1-4.68-2.55,1.514,1.514,0,0,0-2.1-.24,1.485,1.485,0,0,0-.24,2.1,9.608,9.608,0,0,0,2.97,2.49,10.982,10.982,0,0,0,3.72,1.17,8.593,8.593,0,0,0,6.3-1.74,6.242,6.242,0,0,0,1.89-2.73A6,6,0,0,0,455.679,5093.5Zm21.029-15.84a1.5,1.5,0,0,0-2.07.42l-6.839,10.23-6.81-10.23a1.5,1.5,0,0,0-2.07-.42,1.536,1.536,0,0,0-.42,2.1l7.8,11.7v8.04a1.524,1.524,0,0,0,1.5,1.5,1.5,1.5,0,0,0,1.5-1.5v-8.04l7.829-11.7A1.536,1.536,0,0,0,476.708,5077.66Z" transform="translate(-395.188 -5077.16)"/>
  <path id="A" class="cls-2" d="M476.55,5101a1.5,1.5,0,0,1-1.35-2.16l9.989-20.58a1.536,1.536,0,0,1,1.35-.84,1.5,1.5,0,0,1,1.35.84l10.05,20.55a1.5,1.5,0,0,1-2.7,1.32l-2.34-4.83a10.657,10.657,0,0,0-4.98-.18,17.932,17.932,0,0,0-5.129,1.83,26.76,26.76,0,0,0-5.22,3.63A1.482,1.482,0,0,1,476.55,5101Zm9.989-18.66-6.029,12.45c0.27-.15.54-0.3,0.84-0.45a20.721,20.721,0,0,1,6-2.16,14.4,14.4,0,0,1,3.9-.21Z" transform="translate(-395.188 -5077.16)"/>
</svg>
